Patient4_TMGait_0pt3_01_left_17_EMG.mot
version=1
nRows=19
nColumns=33
inDegrees=no
endheader
time	1LAddLong	2LGlutMax	3LGlutMed	4LIliopsoas	5LSemiMemb	6LBicFemLong	7LRecFem	8LVastMed	9LVastLat	10LGasMed	11LTibAnt	12lTibPost	13LPeroneusLong	14LSol	15LExtDigLong	16LFlexDigLong	17RAddLong	18RGlutMax	19RGlutMed	20RIliopsoas	21RSemiMemb	22RBicFemLong	23RRecFem	24RVastMed	25RVastLat	26RGasMed	27RTibAnt	28RTibPost	29RPeroneusLong	30RSol	31RExtDigLong	32RFlexDigLong
31.6	0.010529	0.055237	-0.005035	0.028229	-0.005188	-0.031433	0.003204	0.006409	0.024261	-0.002136	-0.12619	-0.002594	0.035858	-0.039368	0.033112	-0.014038	0.018463	0.050812	0.20309	-0.06958	0.008545	-0.28137	0.049133	0.099945	-0.16144	0.016327	-0.056458	0.001984	0.10101	-0.15808	0.000916	-0.003662
31.601	0.007019	0.039368	-0.025787	0.013123	-0.003967	-0.030975	0.010529	0.004272	0.013428	-0.003967	-0.025482	0.007477	-0.021057	-0.053253	-0.006409	0.000458	0.016785	-0.052795	0.48172	-0.001984	0.006866	-0.2214	-0.25192	0.28885	-0.17044	0.007782	0.006409	-0.028839	-0.80048	-0.21881	-0.002441	-0.004578
31.602	0.009308	0.038757	0.024109	-0.021515	-0.011444	-0.016174	0.002136	0.007935	0.010986	-0.028534	0.056915	0.00351	-0.013123	-0.03006	0.20447	-0.010986	0.027771	-0.007782	0.3775	0.088959	-0.005188	-0.20248	-0.26871	0.13443	-0.43732	-0.000763	0.095367	-0.043945	-0.11139	-0.005188	-0.00061	-0.014038
31.603	0.002747	0.029907	0.004883	-0.023193	-0.00946	-0.011139	-0.016022	0.006104	-0.012054	-0.024414	0.022125	0.004425	-0.007324	-0.00885	-0.18646	-0.007935	0.020599	0.012817	0.52124	0.09552	-0.022736	-0.084686	-0.019836	0.18402	-0.48569	0.019379	-0.14313	0.00061	0.52124	-0.15045	-0.000153	-0.006714
31.604	-0.000763	0.00061	-0.033112	-0.003967	-0.006256	-0.021057	-0.029297	0.001373	-0.022125	0.018616	-0.15686	0.003815	0.029907	0.01236	-0.14633	-0.001068	0.039368	-0.053406	0.21851	0.10178	-0.045166	0.041199	0.19684	-0.036621	-0.49774	0.016937	-0.056915	-0.007477	-0.20981	-0.098572	0.001221	-0.013733
31.605	0.007935	0.040283	-0.039978	-0.00473	-0.003357	-0.031586	-0.01709	0.009003	-0.042572	0.001221	-0.13107	-0.003204	0.036163	0.041504	-0.11597	0.002747	0.04364	0.007019	0.27268	0.049286	-0.063324	0.17548	0.18112	-0.024872	-0.57922	0.010529	0.006256	-0.013275	0.27817	-0.10117	0.002289	-0.01297
31.606	0.001373	0.05188	-0.020599	-0.002441	-0.003204	-0.020142	-0.014191	0.009155	-0.037689	0.007172	-0.020142	0.006409	0.009308	0.031281	-0.024109	0.003357	0.022125	0.038605	-0.030212	0.075226	-0.089264	0.61554	0.21973	-0.003815	-0.66009	0.009155	0.032959	-0.00412	0.73074	-0.19073	0.001831	-0.014191
31.607	0.005188	0.064697	-0.005188	0.000458	-0.000916	-0.02182	-0.034332	0.004883	-0.052643	-0.006409	0.025787	-0.000153	-0.011902	0.054016	0.055695	-0.004578	0.016174	0.085602	-0.43274	0.088806	-0.089722	0.37476	0.30777	0.036774	-0.46722	0.007782	0.022278	0.020752	0.8493	-0.21774	0.002594	-0.010376
31.608	0.007477	0.054779	-0.005493	-0.007629	-0.011749	-0.02182	-0.014496	0.005341	-0.046997	-0.025635	-0.1535	0.00351	0.031586	0.009155	-0.016785	0.005188	0.037537	0.11063	-0.33936	0.078125	-0.065308	-0.005646	0.26916	-0.10483	-0.056458	0.018311	0.015564	0.039368	-0.8345	-0.070038	0.002441	-0.015869
31.609	0.007629	0.069885	-0.000763	0.016174	-0.006714	-0.016937	-0.027008	0.009766	-0.042877	-0.029755	-0.092316	0.002289	0.04776	-0.002899	0.037231	0.001984	0.055847	0.11505	0.34195	0.062561	0.075989	-0.1619	0.31281	-0.17792	-0.009308	0.023041	0.056763	-0.21118	-0.64392	0.016174	0.002136	-0.00946
31.61	0.002747	0.09491	0.035095	-0.012054	-0.006561	-0.040741	-0.031586	0.001373	-0.048218	-0.027161	0.064697	0.012512	0.023499	-0.016937	0.056458	-0.003052	0.020599	0.12451	0.5069	0.072021	0.037994	-0.103	0.38376	-0.023041	0.020752	0.011292	0.06073	-0.29511	-0.66803	-0.084686	-0.000153	-0.013123
31.611	0.005493	0.10208	0.010223	0.012817	-0.000153	-0.027924	-0.032043	0.001984	-0.046692	-0.047607	0.093079	0.001373	0.039825	-0.077362	0.027771	-0.001678	-0.015411	0.13687	0.58334	0.04425	-0.17029	0.096436	0.25009	-0.061493	0.018616	0.006714	0.077972	-0.098114	-0.55649	-0.15289	0.003052	-0.009308
31.612	0.007629	0.088806	-0.010071	0.015106	-0.005951	-0.029144	-0.030975	0.002899	-0.041199	-0.012512	0.079193	-0.009155	-0.00824	-0.050049	0.089874	-0.003967	-0.023193	0.10941	0.33936	-0.022736	-0.12695	0.12604	0.068207	-0.15778	-0.056915	0.029144	0.12009	0.22629	-0.68512	-0.080109	0.000305	0.000305
31.613	-0.00473	0.11124	-0.004425	0.003357	-0.003815	-0.047607	-0.030365	0.003052	-0.056	0.000763	0.1413	-0.005341	-0.060425	-0.066833	0.38971	-0.001831	-0.008698	0.069733	0.006866	-0.038757	0.098267	0.034027	0.012512	-0.31952	-0.15945	-0.008545	-0.065155	0.11078	0.53604	-0.15366	0.001526	-0.00473
31.614	0.005035	0.12878	-0.018921	0.002136	-0.013123	-0.039215	-0.044708	0.010071	-0.04364	-0.037994	0.17197	-0.00473	-0.014343	-0.071106	0.38361	-0.000153	-0.011902	-0.005341	0.18021	-0.054016	0.1001	0.23422	-0.085602	-0.059814	-0.083466	-0.010681	-0.057678	-0.02655	-0.77774	-0.19577	-0.003357	-0.005646
31.615	0.00061	0.11307	0.011749	0.010071	-0.009918	-0.036926	-0.030975	0.00946	-0.035553	-0.020905	0.16617	0.00351	0.032196	0.00351	-0.16068	-0.012207	0.001526	-0.098267	0.4483	-0.073242	-0.06073	0.27008	-0.030823	-0.054779	-0.001678	-0.041809	-0.10681	-0.054779	0.31769	0.16403	-0.003052	-0.001373
31.616	0.002594	0.082092	0.005951	0.012665	-0.008087	-0.04425	-0.037384	0.003204	-0.01709	-0.024414	0.020752	-0.000763	0.00885	0.030823	-0.15137	-0.016174	-0.002441	-0.053406	0.44174	-0.061493	-0.023193	0.17166	-0.16846	-0.27573	0.07431	-0.048676	-0.099945	0.07431	0.89462	0.019989	0.001526	-0.005035
31.617	0.003815	0.075531	0.000305	0.004272	-0.003052	-0.04425	-0.033569	0.000916	-0.00946	-0.030365	-0.054932	0.000763	0.01236	0.066071	0.32227	0.014648	0.005646	-0.044708	0.062408	-0.092621	-0.029602	0.070496	-0.23987	-0.25635	0.077515	-0.069427	-0.009766	0.088348	0.69275	-0.026703	0.002441	-0.014038
31.618	0.010376	0.090332	-0.006409	0.016022	-0.007324	-0.066376	-0.050354	0.010834	-0.018768	-0.037537	-0.043182	0.00351	0.035858	0.034943	0.8081	0.005035	-0.013428	-0.059357	-0.83756	-0.088806	0.019531	-0.001526	-0.26886	0.95444	0.19714	-0.11673	0.06012	-0.28717	0.63416	-0.26932	0.001068	-0.016479
